<?xml version="1.0" standalone="no"?>
<!DOCTYPE svg PUBLIC "-//W3C//DTD SVG 20010904//EN"
 "http://www.w3.org/TR/2001/REC-SVG-20010904/DTD/svg10.dtd">
<svg version="1.0" xmlns="http://www.w3.org/2000/svg"
 width="800.000000pt" height="600.000000pt" viewBox="0 0 800.000000 600.000000"
 preserveAspectRatio="xMidYMid meet">
<metadata>
Created by potrace 1.15, written by Peter Selinger 2001-2017
</metadata>
<g transform="translate(0.000000,600.000000) scale(0.100000,-0.100000)"
fill="#000000" stroke="none">
<path d="M3306 5970 c-143 -26 -230 -105 -271 -245 -8 -27 -33 -159 -55 -292
-22 -133 -49 -267 -60 -298 -46 -133 -121 -223 -228 -273 -53 -24 -69 -27
-215 -30 -242 -6 -375 13 -607 87 -212 68 -307 83 -399 65 -45 -9 -112 -73
-169 -162 -88 -137 -87 -130 -87 -582 0 -414 4 -464 50 -690 53 -261 128 -473
270 -767 149 -309 231 -427 462 -667 442 -457 445 -460 505 -454 28 2 34 7 36
31 4 33 -18 104 -66 206 -66 144 -102 251 -148 433 -45 179 -46 187 -51 379
-5 195 -5 197 20 252 54 117 159 140 287 62 36 -22 115 -88 177 -147 61 -59
118 -108 126 -108 24 0 34 22 40 87 3 34 17 99 33 145 22 68 36 91 75 129 70
69 149 104 224 102 80 -1 168 -35 199 -76 34 -45 100 -191 146 -322 21 -60 63
-171 93 -245 30 -74 85 -216 122 -315 136 -369 228 -565 418 -890 280 -480
414 -666 733 -1017 163 -178 278 -279 370 -324 75 -36 112 -42 132 -22 20 20
14 43 -32 135 -24 48 -47 99 -51 113 -4 14 -44 111 -87 215 -97 231 -130 321
-214 585 -108 338 -192 667 -248 972 -74 401 -116 1131 -73 1285 24 89 52 139
114 205 66 69 119 92 195 86 132 -11 221 -98 284 -277 27 -76 82 -105 101 -54
23 60 140 257 168 282 88 77 226 42 321 -81 102 -132 269 -433 317 -573 19
-55 57 -158 85 -230 53 -140 57 -156 98 -375 14 -80 32 -151 40 -159 35 -38
89 34 148 199 43 119 122 427 137 530 18 127 18 583 0 710 -35 253 -122 554
-266 915 -157 395 -241 527 -519 813 -86 88 -124 120 -175 145 -63 31 -70 32
-186 31 -109 0 -127 -3 -202 -31 -83 -32 -171 -85 -278 -169 -33 -26 -89 -61
-125 -78 -57 -27 -78 -31 -170 -34 -178 -6 -342 38 -516 138 -124 72 -191 127
-415 345 -209 203 -273 253 -374 287 -65 22 -173 30 -239 18z m584 -429 c0
-143 -70 -245 -182 -265 -35 -6 -41 -4 -78 36 -44 47 -58 83 -43 106 5 9 41
32 80 52 38 19 98 59 132 87 76 64 91 62 91 -16z m-691 -40 c64 -27 142 -56
173 -65 32 -9 69 -27 84 -39 25 -22 26 -26 18 -77 l-9 -54 -58 -23 c-58 -23
-59 -23 -115 -6 -40 13 -73 33 -114 71 -47 44 -62 67 -88 132 -32 85 -37 110
-19 110 6 0 63 -22 128 -49z"/>
</g>
</svg>
